<svg xmlns="http://www.w3.org/2000/svg" viewBox="0 0 64 64"><defs><style>.cls-1{fill:none;}.cls-2{fill:#1797c0;}.cls-3,.cls-4{fill:#fff;}.cls-4{fill-rule:evenodd;}</style></defs><title>logo-salesforce</title><g id="invisi-border"><rect class="cls-1" width="64" height="64"/></g><g id="icon"><path class="cls-2" d="M27.29676,16.68959a9.811,9.811,0,0,1,7.09927-3.0481,9.91083,9.91083,0,0,1,8.63647,5.12013,11.9315,11.9315,0,0,1,4.88169-1.03792,12.17512,12.17512,0,1,1-2.37755,24.11338,8.82255,8.82255,0,0,1-11.56,3.63024,10.06563,10.06563,0,0,1-18.71191-.45479,9.28208,9.28208,0,0,1-1.92078.20008A9.46071,9.46071,0,0,1,8.67231,27.59315,10.87219,10.87219,0,0,1,27.29676,16.68959Z"/><path class="cls-3" d="M12.1085,32.73639c-.03525.0918.01257.11087.0239.12714a3.36471,3.36471,0,0,0,1.9935.584c1.14841,0,1.86193-.61047,1.86193-1.59375v-.01929c0-.90916-.80531-1.23962-1.56-1.478l-.09863-.03174c-.56908-.18482-1.06043-.34471-1.06043-.71955v-.01927c0-.321.28725-.557.7322-.557a3.31132,3.31132,0,0,1,1.459.37322s.11149.07191.15205-.03555c.02191-.05825.21314-.57291.23343-.62875a.10642.10642,0,0,0-.05564-.12916,3.25263,3.25263,0,0,0-1.64538-.44192l-.1147.00039a1.6049,1.6049,0,0,0-1.785,1.54514v.0195c0,.95857.80955,1.27032,1.56806,1.48688l.12173.03777c.5524.16953,1.02929.316,1.02929.70447v.01948c0,.35575-.31.62009-.80913.62009a2.70985,2.70985,0,0,1-1.47926-.42565c-.08075-.047-.127-.08094-.18922-.11891a.09167.09167,0,0,0-.151.05181Z"/><path class="cls-3" d="M28.92025,32.73639c-.03516.0918.01244.11087.0241.12714a3.35981,3.35981,0,0,0,1.99329.584c1.14841,0,1.86183-.61047,1.86183-1.59375v-.01929c0-.90916-.805-1.23962-1.55991-1.478l-.09842-.03174c-.56929-.18482-1.06064-.34471-1.06064-.71955v-.01927c0-.321.28726-.557.73241-.557a3.31115,3.31115,0,0,1,1.45876.37322s.11157.07191.15216-.03555c.0217-.05825.21293-.57291.23342-.62875a.10654.10654,0,0,0-.05584-.12916,3.252,3.252,0,0,0-1.6453-.44192l-.11469.00039a1.60489,1.60489,0,0,0-1.785,1.54514v.0195c0,.95857.80952,1.27032,1.568,1.48688l.12173.03777c.55242.16953,1.02949.316,1.02949.70447v.01948c0,.35575-.31014.62009-.80913.62009a2.709,2.709,0,0,1-1.47925-.42565c-.08094-.047-.12815-.07954-.18943-.11891a.09744.09744,0,0,0-.15085.05181Z"/><path class="cls-3" d="M41.356,29.78029a2.31276,2.31276,0,0,0-.4363-.83282,2.10452,2.10452,0,0,0-.7364-.55964,2.66512,2.66512,0,0,0-2.05537,0,2.10307,2.10307,0,0,0-.736.56,2.31147,2.31147,0,0,0-.43628.83243,3.831,3.831,0,0,0,0,2.05979,2.31485,2.31485,0,0,0,.43628.833,2.0588,2.0588,0,0,0,.73641.555,2.72227,2.72227,0,0,0,2.05457,0,2.06009,2.06009,0,0,0,.73681-.555,2.31541,2.31541,0,0,0,.4363-.833,3.831,3.831,0,0,0,0-2.05979m-.959,1.02989a2.36668,2.36668,0,0,1-.30733,1.30309,1.03152,1.03152,0,0,1-.93368.45558,1.019,1.019,0,0,1-.92885-.45519,2.94255,2.94255,0,0,1-.00041-2.60153,1.023,1.023,0,0,1,.92926-.45077,1.03477,1.03477,0,0,1,.93368.45095,2.33716,2.33716,0,0,1,.30733,1.29787"/><path class="cls-4" d="M49.22753,32.42021a.09122.09122,0,0,0-.12254-.05807,2.18608,2.18608,0,0,1-.44554.12737,3.41054,3.41054,0,0,1-.52549.03777,1.4606,1.4606,0,0,1-1.09639-.4108,1.83355,1.83355,0,0,1-.41179-1.31052,2.03541,2.03541,0,0,1,.368-1.2623,1.2517,1.2517,0,0,1,1.06345-.468,3.20524,3.20524,0,0,1,1.01362.145s.07473.03275.11089-.06629c.084-.233.14623-.39893.23581-.65486a.08617.08617,0,0,0-.05986-.11289,3.75606,3.75606,0,0,0-.63918-.16151,4.81644,4.81644,0,0,0-.71914-.0482,2.61666,2.61666,0,0,0-1.06866.20549,2.21645,2.21645,0,0,0-.77178.559,2.36069,2.36069,0,0,0-.46642.833,3.29989,3.29989,0,0,0-.15628,1.0319,2.76025,2.76025,0,0,0,.63757,1.90793,2.42572,2.42572,0,0,0,1.89267.7121,3.90541,3.90541,0,0,0,1.35752-.24206.0872.0872,0,0,0,.039-.1139Z"/><path class="cls-4" d="M54.13172,29.59951a2.0211,2.0211,0,0,0-.415-.75973,1.8871,1.8871,0,0,0-.61629-.46944,2.36436,2.36436,0,0,0-.92923-.18862A2.53987,2.53987,0,0,0,51.0997,28.39a2.1358,2.1358,0,0,0-.74687.57009,2.34406,2.34406,0,0,0-.43951.84268,3.6534,3.6534,0,0,0-.14222,1.03531,3.487,3.487,0,0,0,.147,1.03612,2.07881,2.07881,0,0,0,1.28641,1.36515,3.24737,3.24737,0,0,0,1.17754.19062,3.38784,3.38784,0,0,0,1.63435-.32461c.03614-.02008.06989-.05484.0277-.15508l-.21252-.594a.09379.09379,0,0,0-.12213-.05665,3.1192,3.1192,0,0,1-1.33221.24005,1.32741,1.32741,0,0,1-1.4873-1.461l3.24416.0024a.09531.09531,0,0,0,.09441-.08437A3.46367,3.46367,0,0,0,54.13172,29.59951Zm-3.22688.67816a1.88693,1.88693,0,0,1,.26194-.76554,1.0344,1.0344,0,0,1,.92806-.47066,1.007,1.007,0,0,1,.90916.47084,1.60307,1.60307,0,0,1,.21494.76575Z"/><path class="cls-4" d="M28.14425,29.59951a2.021,2.021,0,0,0-.41481-.75973,1.88926,1.88926,0,0,0-.61629-.46944,2.36739,2.36739,0,0,0-.92923-.18862,2.53987,2.53987,0,0,0-1.07148.20831,2.137,2.137,0,0,0-.74726.57009,2.35653,2.35653,0,0,0-.43953.84268,3.65381,3.65381,0,0,0-.142,1.03531,3.47427,3.47427,0,0,0,.14724,1.03612,2.0782,2.0782,0,0,0,1.286,1.36515,3.24958,3.24958,0,0,0,1.17793.19062,3.38922,3.38922,0,0,0,1.63435-.32461c.03574-.02008.06989-.05484.02731-.15508l-.21213-.594a.094.094,0,0,0-.12233-.05665,3.11771,3.11771,0,0,1-1.33222.24005,1.32739,1.32739,0,0,1-1.48728-1.461l3.24434.0024a.09532.09532,0,0,0,.09442-.08437A3.47007,3.47007,0,0,0,28.14425,29.59951Zm-3.22706.67816a1.8895,1.8895,0,0,1,.26214-.76554,1.03422,1.03422,0,0,1,.92784-.47066,1.00724,1.00724,0,0,1,.90957.47084,1.60751,1.60751,0,0,1,.21473.76575Z"/><path class="cls-3" d="M19.19461,30.12218c-.13177-.00964-.30211-.01446-.50661-.01446a3.0759,3.0759,0,0,0-.79907.10244,2.09977,2.09977,0,0,0-.67757.31418,1.51661,1.51661,0,0,0-.64441,1.283,1.6918,1.6918,0,0,0,.14887.74063,1.344,1.344,0,0,0,.423.508,1.79071,1.79071,0,0,0,.66109.28646,3.89542,3.89542,0,0,0,.85914.08756,5.93191,5.93191,0,0,0,.9857-.08215c.31858-.05423.70889-.13358.81736-.1587.10807-.02489.2274-.05764.2274-.05764a.10225.10225,0,0,0,.07413-.106l-.00181-2.96756a1.81731,1.81731,0,0,0-.51566-1.43245,2.20837,2.20837,0,0,0-1.4903-.44855,5.3524,5.3524,0,0,0-.86979.07994,3.12632,3.12632,0,0,0-1.00016.366.10091.10091,0,0,0-.02913.129l.2298.61709a.08214.08214,0,0,0,.10647.05262.41886.41886,0,0,0,.05342-.0267,3.29774,3.29774,0,0,1,1.41378-.32924,1.31016,1.31016,0,0,1,.80189.20971c.17717.136.267.34069.267.77317v.1372C19.45093,30.14549,19.19461,30.12218,19.19461,30.12218Zm-1.29122,2.28034a.63542.63542,0,0,1-.18723-.19243.77845.77845,0,0,1-.09721-.42225.71066.71066,0,0,1,.28966-.62793,1.45524,1.45524,0,0,1,.94111-.23442,6.563,6.563,0,0,1,.88083.07492v1.475H19.731a6.58727,6.58727,0,0,1-.87665.11651A1.45966,1.45966,0,0,1,17.90339,32.40252Z"/><path class="cls-4" d="M45.36628,28.45048a.088.088,0,0,0-.04861-.1169,2.868,2.868,0,0,0-.544-.0924,1.60639,1.60639,0,0,0-.83645.13459,1.4635,1.4635,0,0,0-.54841.40457l-.00039-.39574a.09366.09366,0,0,0-.0932-.098h-.83164a.0939.0939,0,0,0-.0932.098v4.84053a.09859.09859,0,0,0,.09843.09842h.85292a.09825.09825,0,0,0,.098-.09842v-2.418a2.85644,2.85644,0,0,1,.10727-.85192,1.21472,1.21472,0,0,1,.28444-.47709.98411.98411,0,0,1,.401-.241,1.57122,1.57122,0,0,1,.43509-.06128,1.834,1.834,0,0,1,.35635.04359c.06268.00683.09763-.03133.11852-.08777C45.17827,28.98342,45.33614,28.53887,45.36628,28.45048Z"/><path class="cls-4" d="M37.36418,26.20731a2.73405,2.73405,0,0,0-.3206-.07615,2.52851,2.52851,0,0,0-.44112-.03414,1.85721,1.85721,0,0,0-1.374.49336,2.67835,2.67835,0,0,0-.65206,1.47162l-.03976.21975h-.73681a.1091.1091,0,0,0-.10888.09441l-.12093.67475c-.00843.06449.01928.10487.10606.10445h.71673l-.72757,4.06113a5.09849,5.09849,0,0,1-.19406.79987,1.64858,1.64858,0,0,1-.22659.46142.60132.60132,0,0,1-.29688.2294,1.20555,1.20555,0,0,1-.38168.05483,1.4729,1.4729,0,0,1-.26033-.02851.778.778,0,0,1-.17506-.05685.08959.08959,0,0,0-.11731.05223c-.02693.06891-.218.59459-.24065.65948a.09663.09663,0,0,0,.05.12937,2.43956,2.43956,0,0,0,.29649.08676,1.95678,1.95678,0,0,0,.47538.04521,2.36754,2.36754,0,0,0,.79628-.12354,1.48917,1.48917,0,0,0,.59981-.41843,2.15492,2.15492,0,0,0,.42144-.72576,6.16438,6.16438,0,0,0,.28524-1.09016l.73119-4.13645h1.06866a.10933.10933,0,0,0,.10887-.09441l.12093-.67475c.00844-.06447-.01927-.10484-.10605-.10445H35.58361a4.3951,4.3951,0,0,1,.17155-.73179.93983.93983,0,0,1,.22739-.34631.67215.67215,0,0,1,.27159-.16894,1.12791,1.12791,0,0,1,.34832-.05021,1.35571,1.35571,0,0,1,.26675.0269c.10044.02131.13942.03275.16594.04059.10564.03215.11971.001.14061-.05021l.24828-.68138A.08675.08675,0,0,0,37.36418,26.20731Z"/><path class="cls-4" d="M22.86785,33.22513a.09394.09394,0,0,1-.09281.09842h-.86056a.09413.09413,0,0,1-.0932-.09842V26.29971a.09373.09373,0,0,1,.0932-.09783H22.775a.09354.09354,0,0,1,.09281.09783Z"/></g></svg>