<svg id="icon" xmlns="http://www.w3.org/2000/svg" viewBox="0 0 64 64"><defs><style>.cls-1{fill:#1d3160;}.cls-2{fill:#8dd1f3;}.cls-3{fill:#a976b2;}.cls-4{fill:#732b87;}.cls-5{fill:#069a49;}.cls-6{fill:#fff;}.cls-7{fill:#15713a;}</style></defs><title>trailhead-fullcolor</title><path class="cls-1" d="M32.97869,60.0665h.13994a49.96763,49.96763,0,0,0,25.98344-8.35476,1.999,1.999,0,0,0,.85955-1.639V46.07538A44.72178,44.72178,0,0,0,32.76888,4.26191a1.99869,1.99869,0,0,0-1.579,0A44.72178,44.72178,0,0,0,3.99717,46.07538v3.99738a1.99926,1.99926,0,0,0,.81948,1.619,49.96957,49.96957,0,0,0,27.16274,8.3747Z"/><path class="cls-2" d="M13.2879,39.09159a.19118.19118,0,0,0,.02658-.0868l12.99183-18.988a1.99857,1.99857,0,0,1,3.29768,0l6.386,9.33411,2.34852-3.34783a1.99873,1.99873,0,0,1,3.288,0l8.99425,12.99163a.1763.1763,0,0,1,.07993.1399h4.747C51.7259,16.05145,33.5102,8.98251,31.98445,8.29351A37.152,37.152,0,0,0,17.65552,19.09006a40.24441,40.24441,0,0,0-9.10261,19.9958Z"/><polygon class="cls-2" points="27.995 24.684 27.992 24.688 27.992 24.688 27.995 24.684"/><polygon class="cls-3" points="45.861 39.131 39.988 30.65 37.139 34.771 40.429 39.125 45.861 39.131"/><polygon class="cls-4" points="37.139 34.771 34.134 39.117 40.429 39.125 37.139 34.771"/><polygon class="cls-2" points="29.002 26.156 27.995 24.684 27.992 24.688 29.002 26.156"/><polygon class="cls-3" points="22.945 32.068 28.066 39.11 29.257 39.111 33.592 32.869 29.002 26.156 27.992 24.688 22.945 32.068"/><polygon class="cls-4" points="22.945 32.068 18.137 39.097 28.066 39.11 22.945 32.068"/><path class="cls-5" d="M33.546,53.112a1.23535,1.23535,0,0,0-.63291-1.62814l-1.83783-.81337a5.25329,5.25329,0,0,1-2.30986-7.59223H8.09461c-.09985.99932-.09985,1.9988-.09985,2.99811v2.928a47.1443,47.1443,0,0,0,13.573,5.75139l0,.00094a47.59483,47.59483,0,0,0,10.26875,1.34972l1.649-2.87518A1.25293,1.25293,0,0,0,33.546,53.112Z"/><path class="cls-5" d="M55.89419,43.07822H33.92739l-1.66705,2.00857a1.23517,1.23517,0,0,0,.48218,1.91794l1.83779.81358a5.25239,5.25239,0,0,1,2.43026,7.41134l-.32989.57963c1.04341-.13279,2.12056-.31127,3.2463-.54135a47.85366,47.85366,0,0,0,5.66772-1.46279c.28112-.08571.85654-.28735.85654-.28735a47.8544,47.8544,0,0,0,9.51281-4.51347l.03-2.928C55.994,45.077,55.95416,44.07754,55.89419,43.07822Z"/><path class="cls-6" d="M35.06189,48.06207a5.27281,5.27281,0,0,0-.48158-.24376l-1.83779-.81358a1.23517,1.23517,0,0,1-.48218-1.91794l1.66705-2.00857h-5.162a5.25329,5.25329,0,0,0,2.30986,7.59223l1.83783.81337A1.23535,1.23535,0,0,1,33.546,53.112a1.25293,1.25293,0,0,1-.06052.11923l-1.649,2.87518a36.16146,36.16146,0,0,0,4.84423-.29709l.32989-.57963A5.25236,5.25236,0,0,0,35.06189,48.06207Z"/><polygon class="cls-7" points="42.415 49.596 48.373 49.596 45.394 46.191 42.415 49.596"/><polygon class="cls-7" points="18.585 52.007 24.544 52.007 21.565 48.602 18.585 52.007"/><polygon class="cls-7" points="15.723 45.019 12.743 48.424 18.702 48.424 15.723 45.019"/></svg>